<svg xmlns="http://www.w3.org/2000/svg" width="130" height="28" viewBox="0 0 130 28">
    <path class="uk-text-primary" fill="#5845f3" d="M62 28H0V0h62zm-49.7-8.4h2.59v-9.09h3.58V8.4H8.71v2.11h3.59zm10.38-2.08v-2.59h5.2v-2h-5.2v-2.45h5.89V8.4H20.1v11.2h8.68v-2.08zm13.73 2.27a6.61 6.61 0 002.64-.51 5.14 5.14 0 002-1.49l-1.66-1.53a3.58 3.58 0 01-2.82 1.32 3.75 3.75 0 01-1.85-.45 3.32 3.32 0 01-1.28-1.27 4.07 4.07 0 010-3.72 3.32 3.32 0 011.28-1.27 3.75 3.75 0 011.85-.45 3.57 3.57 0 012.82 1.31L41 10.19a5.24 5.24 0 00-2-1.47 7 7 0 00-5.69.28 5.54 5.54 0 00-2.17 2 5.66 5.66 0 00-.8 3 5.66 5.66 0 00.8 3 5.54 5.54 0 002.17 2.07 6.51 6.51 0 003.1.72zM50.7 8.4v4.42h-5.09V8.4H43v11.2h2.59V15h5.11v4.6h2.59V8.4z"/>
    <path fill="#1c1c1c" d="M70.85 19.34a5.06 5.06 0 01-1.85-1l.59-1.25a4.91 4.91 0 001.64.94 6 6 0 002.06.36 3.74 3.74 0 002.08-.47 1.47 1.47 0 00.69-1.26 1.26 1.26 0 00-.38-.94 2.52 2.52 0 00-.93-.55c-.37-.13-.89-.27-1.56-.43a16.31 16.31 0 01-2-.61 3.35 3.35 0 01-1.33-.93 2.56 2.56 0 01-.55-1.71 2.92 2.92 0 01.47-1.61 3.33 3.33 0 011.4-1.18 5.92 5.92 0 012.38-.43 7.57 7.57 0 012 .26 5.2 5.2 0 011.65.73l-.53 1.28a6.34 6.34 0 00-1.5-.68 5.85 5.85 0 00-1.57-.23 3.44 3.44 0 00-2 .5 1.53 1.53 0 00-.68 1.28 1.24 1.24 0 00.38.93 2.67 2.67 0 001 .56 12.78 12.78 0 001.54.43 14.17 14.17 0 012 .61 3.47 3.47 0 011.32.92 2.45 2.45 0 01.55 1.68 2.85 2.85 0 01-.48 1.61 3.15 3.15 0 01-1.45 1.15 5.89 5.89 0 01-2.4.43 7.69 7.69 0 01-2.54-.39zM88 9.44a3.53 3.53 0 011.25 2.86A3.55 3.55 0 0188 15.17a5.19 5.19 0 01-3.42 1H81.8v3.43h-1.6V8.4h4.37A5.19 5.19 0 0188 9.44zm-1.15 4.73a2.28 2.28 0 00.8-1.87 2.26 2.26 0 00-.8-1.86 3.62 3.62 0 00-2.32-.65H81.8v5h2.72a3.62 3.62 0 002.32-.62zm11.56 2.63h-6l-1.24 2.8h-1.59l5.07-11.2h1.58l5.09 11.2h-1.68zm-.56-1.28L95.43 10 93 15.52zM105 19a5.4 5.4 0 01-2.12-2 5.71 5.71 0 01-.77-2.94 5.71 5.71 0 01.77-2.94 5.36 5.36 0 012.13-2 6.17 6.17 0 013-.75 6.45 6.45 0 012.4.44 5 5 0 011.93 1.19l-1 1a4.17 4.17 0 00-3.15-1.32 4.47 4.47 0 00-2.25.56 4 4 0 00-1.58 1.54 4.53 4.53 0 000 4.4 4 4 0 001.58 1.54 4.47 4.47 0 002.25.56A4.15 4.15 0 00111.3 17l1 1a5 5 0 01-1.86 1.31 6.27 6.27 0 01-2.41.45A6.13 6.13 0 01105 19zm18-.77v1.37h-8.13V8.4h7.91v1.39h-6.31v3.44h5.62v1.36h-5.62v3.62z"/>
</svg>